HIERARCHY
ROOT Hips
{
	OFFSET -0.001795 -0.223333 0.028219
	CHANNELS 6 Xposition Yposition Zposition Zrotation Yrotation Xrotation 
	JOINT LeftUpLeg
	{
		OFFSET 0.069520 -0.091406 -0.006815
		CHANNELS 3 Zrotation Yrotation Xrotation
		JOINT LeftLeg
		{
			OFFSET 0.034277 -0.375199 -0.004496
			CHANNELS 3 Zrotation Yrotation Xrotation
			JOINT LeftFoot
			{
				OFFSET -0.013596 -0.397961 -0.043693
				CHANNELS 3 Zrotation Yrotation Xrotation
				JOINT LeftToe
				{
					OFFSET 0.026358 -0.055791 0.119288
					CHANNELS 3 Zrotation Yrotation Xrotation
					End Site
					{
						OFFSET 0.000000 0.000000 0.000000
					}
				}
			}
		}
	}
	JOINT RightUpLeg
	{
		OFFSET -0.067670 -0.090522 -0.004320
		CHANNELS 3 Zrotation Yrotation Xrotation
		JOINT RightLeg
		{
			OFFSET -0.038290 -0.382569 -0.008850
			CHANNELS 3 Zrotation Yrotation Xrotation
			JOINT RightFoot
			{
				OFFSET 0.015774 -0.398415 -0.042312
				CHANNELS 3 Zrotation Yrotation Xrotation
				JOINT RightToe
				{
					OFFSET -0.025372 -0.048144 0.123348
					CHANNELS 3 Zrotation Yrotation Xrotation
					End Site
					{
						OFFSET 0.000000 0.000000 0.000000
					}
				}
			}
		}
	}
	JOINT Spine
	{
		OFFSET -0.002533 0.108963 -0.026696
		CHANNELS 3 Zrotation Yrotation Xrotation
		JOINT Spine1
		{
			OFFSET 0.005487 0.135180 0.001092
			CHANNELS 3 Zrotation Yrotation Xrotation
			JOINT Spine2
			{
				OFFSET 0.001457 0.052922 0.025425
				CHANNELS 3 Zrotation Yrotation Xrotation
				JOINT Neck
				{
					OFFSET -0.002778 0.213870 -0.042857
					CHANNELS 3 Zrotation Yrotation Xrotation
					JOINT Head
					{
						OFFSET 0.005152 0.064970 0.051349
						CHANNELS 3 Zrotation Yrotation Xrotation
						End Site
						{
							OFFSET 0.000000 0.000000 0.000000
						}
					}
				}
				JOINT LeftShoulder
				{
					OFFSET 0.078845 0.121749 -0.034090
					CHANNELS 3 Zrotation Yrotation Xrotation
					JOINT LeftArm
					{
						OFFSET 0.090977 0.030469 -0.008868
						CHANNELS 3 Zrotation Yrotation Xrotation
						JOINT LeftForeArm
						{
							OFFSET 0.259612 -0.012772 -0.027456
							CHANNELS 3 Zrotation Yrotation Xrotation
							JOINT LeftHand
							{
								OFFSET 0.249234 0.008986 -0.001171
								CHANNELS 3 Zrotation Yrotation Xrotation
								End Site
								{
									OFFSET 0.000000 0.000000 0.000000
								}
							}
						}
					}
				}
				JOINT RightShoulder
				{
					OFFSET -0.081759 0.118833 -0.038615
					CHANNELS 3 Zrotation Yrotation Xrotation
					JOINT RightArm
					{
						OFFSET -0.096012 0.032551 -0.009143
						CHANNELS 3 Zrotation Yrotation Xrotation
						JOINT RightForeArm
						{
							OFFSET -0.253742 -0.013329 -0.021401
							CHANNELS 3 Zrotation Yrotation Xrotation
							JOINT RightHand
							{
								OFFSET -0.255298 0.007772 -0.005559
								CHANNELS 3 Zrotation Yrotation Xrotation
								End Site
								{
									OFFSET 0.000000 0.000000 0.000000
								}
							}
						}
					}
				}
			}
		}
	}
}
MOTION
Frames: 13
Frame Time: 0.050000
-0.068927 0.953007 -0.050415 2.806872 6.179698 18.931998 9.626622 -1.024578 -21.597168 -4.284004 0.378550 -0.770215 -3.300173 3.644099 21.656857 0.000000 0.000000 0.000000 -10.672748 0.385639 -24.049634 4.468378 -0.528001 2.796673 -17.157498 -30.144244 31.050485 0.000000 0.000000 0.000000 -1.055935 -2.193091 38.253850 8.932445 -2.155248 -14.845570 9.908749 11.130832 29.964460 -1.823079 4.681544 -27.230309 0.000000 0.000000 0.000000 1.185942 -12.697708 4.118570 -41.693482 -79.160814 19.843700 59.230954 -57.083415 -30.039371 0.000000 0.000000 0.000000 -22.355867 29.937231 3.642435 18.980044 47.082458 6.027624 -39.000959 -4.610305 3.534695 0.000000 0.000000 0.000000 
-0.068666 0.952371 -0.050984 2.847761 5.830910 19.170086 9.373645 -1.046736 -21.900836 -4.124081 0.369094 -0.441978 -2.824029 4.050163 21.039040 0.000000 0.000000 0.000000 -10.905511 0.370793 -24.290509 4.256212 -0.493272 2.758112 -16.061301 -28.970361 30.464755 0.000000 0.000000 0.000000 -0.944789 -2.191825 38.247864 8.497643 -2.050172 -14.622013 10.052851 11.414589 29.937626 -1.548261 4.553691 -27.629166 0.000000 0.000000 0.000000 0.289048 -12.331643 3.901680 -44.081059 -76.609537 20.466970 59.857689 -60.540260 -32.780056 0.000000 0.000000 0.000000 -22.069441 29.240157 3.608539 21.301351 46.651835 6.807457 -42.450336 -2.797977 3.405791 0.000000 0.000000 0.000000 
-0.068370 0.952151 -0.051717 3.037617 5.778455 19.387932 8.921700 -1.111541 -22.227446 -4.084805 0.365611 -0.135674 -2.188312 4.765150 20.452835 0.000000 0.000000 0.000000 -11.118404 0.341845 -24.293105 3.891825 -0.441256 2.668890 -15.100052 -27.938758 29.551176 0.000000 0.000000 0.000000 -0.638328 -2.302639 38.048592 8.115234 -1.949998 -14.467146 10.095478 11.778174 30.108727 -1.265182 4.487814 -28.282432 0.000000 0.000000 0.000000 -1.515530 -12.619763 3.805314 -45.219876 -73.763371 19.903978 60.462973 -64.499961 -35.992008 0.000000 0.000000 0.000000 -21.619573 28.619757 3.607835 22.116800 45.296280 6.782357 -44.834466 -0.266536 2.812548 0.000000 0.000000 0.000000 
-0.068075 0.951718 -0.052747 3.156300 5.482123 19.697033 8.424762 -1.171849 -22.550389 -3.702991 0.333387 0.103086 -1.709904 5.192692 19.754733 0.000000 0.000000 0.000000 -11.333218 0.323924 -24.628561 3.666042 -0.406661 2.809349 -14.152270 -26.934408 28.572976 0.000000 0.000000 0.000000 -0.486187 -2.324377 37.979961 7.655059 -1.860387 -13.979932 10.019569 12.323375 29.903079 -0.295955 4.068432 -28.783467 0.000000 0.000000 0.000000 -2.866490 -12.517544 3.582799 -47.058116 -71.416909 20.045685 62.804928 -67.825402 -40.224167 0.000000 0.000000 0.000000 -21.690276 27.794303 3.420296 22.817286 44.554294 6.923025 -47.069395 1.741287 2.337215 0.000000 0.000000 0.000000 
-0.067740 0.951416 -0.054254 3.450108 5.457409 20.054930 7.925355 -1.263275 -23.136273 -3.987940 0.358195 0.214391 -0.703562 6.678446 19.834706 0.000000 0.000000 0.000000 -11.817757 0.240725 -24.799863 3.838871 -0.430476 2.341599 -14.211194 -26.994097 28.654384 0.000000 0.000000 0.000000 -0.307863 -2.450888 38.521494 7.043905 -1.636033 -14.314782 10.027087 12.558247 29.977854 0.242298 3.819918 -28.468223 0.000000 0.000000 0.000000 -4.769104 -12.793617 3.448961 -47.071958 -69.038838 19.004578 67.366724 -71.675523 -46.879530 0.000000 0.000000 0.000000 -22.052332 27.127568 3.174224 22.637699 43.359491 6.610954 -48.516240 4.178949 1.528078 0.000000 0.000000 0.000000 
-0.067363 0.950977 -0.056396 3.649857 5.872034 20.404151 7.388788 -1.388198 -23.739905 -3.701842 0.328013 0.216179 -0.373511 7.240220 19.829572 0.000000 0.000000 0.000000 -11.921629 0.170139 -25.408553 3.582778 -0.399116 2.770911 -14.504106 -27.275323 28.874395 0.000000 0.000000 0.000000 -0.071568 -2.743514 39.760208 6.413654 -1.405231 -14.704997 10.223673 13.103968 30.079550 1.314179 3.389587 -28.705173 0.000000 0.000000 0.000000 -5.513477 -13.120347 3.393386 -47.232504 -68.311135 18.675606 70.481034 -73.489329 -51.116890 0.000000 0.000000 0.000000 -23.065519 26.151056 2.638115 21.235286 42.664564 6.176065 -48.039753 3.707529 1.821546 0.000000 0.000000 0.000000 
-0.066760 0.949990 -0.059403 3.920676 6.093205 20.999482 6.928999 -1.507412 -24.420074 -3.719151 0.327378 0.029754 0.073403 7.830129 19.467740 0.000000 0.000000 0.000000 -12.145239 0.092334 -26.118488 3.292003 -0.360052 2.762347 -14.726988 -27.512268 29.003048 0.000000 0.000000 0.000000 0.252777 -3.027003 40.686419 5.631216 -1.183508 -14.430503 10.284545 13.632496 29.609356 2.132043 2.993381 -27.871623 0.000000 0.000000 0.000000 -6.269163 -13.452371 3.344145 -48.645621 -68.606634 19.789090 70.900234 -74.581533 -52.342191 0.000000 0.000000 0.000000 -24.040784 25.731137 2.298879 19.001406 41.837683 5.406934 -46.142335 1.585817 2.609422 0.000000 0.000000 0.000000 
-0.066006 0.948964 -0.063031 4.262021 6.663851 21.584429 6.484987 -1.655561 -25.169373 -3.470000 0.300927 -0.086708 -0.327705 7.251773 19.050909 0.000000 0.000000 0.000000 -12.397323 -0.028982 -26.627358 2.944379 -0.317270 2.550260 -15.150701 -27.907149 29.313558 0.000000 0.000000 0.000000 0.562533 -3.419470 41.925294 5.325727 -1.057916 -14.779080 10.410999 14.251130 29.805063 2.875890 2.739203 -27.925752 0.000000 0.000000 0.000000 -6.176614 -14.216150 3.533907 -48.994829 -70.212087 20.664150 70.158282 -73.684943 -50.901856 0.000000 0.000000 0.000000 -25.773238 25.195405 1.639742 16.985795 40.816954 4.824325 -43.321838 -0.328146 3.170918 0.000000 0.000000 0.000000 
-0.065301 0.947856 -0.066881 4.450906 7.200169 22.033913 6.366326 -1.756512 -25.884218 -3.511284 0.299748 -0.126206 -0.635686 6.815675 18.772794 0.000000 0.000000 0.000000 -12.602832 -0.152320 -27.371737 2.820966 -0.301924 2.926175 -15.543356 -28.284340 29.563030 0.000000 0.000000 0.000000 0.828855 -3.821006 43.268964 4.845583 -0.910950 -14.741934 10.633564 14.689133 29.705498 3.695819 2.373826 -27.591895 0.000000 0.000000 0.000000 -5.566805 -14.846288 3.769434 -47.648537 -73.277507 21.190869 68.256291 -70.670378 -46.634041 0.000000 0.000000 0.000000 -27.769561 25.160657 1.056583 15.037233 40.259296 4.368375 -39.313233 -3.345661 3.794586 0.000000 0.000000 0.000000 
-0.065139 0.947207 -0.070433 4.644961 7.734025 22.513387 5.984091 -1.896919 -26.526541 -3.260921 0.277009 -0.454481 -0.661976 6.929782 18.919625 0.000000 0.000000 0.000000 -12.893668 -0.285201 -27.810862 2.895399 -0.317922 2.732268 -15.929064 -28.619552 29.935099 0.000000 0.000000 0.000000 1.103721 -4.228290 44.451196 4.588242 -0.822407 -14.831845 10.493700 15.002818 29.607151 4.189402 2.079224 -26.482397 0.000000 0.000000 0.000000 -4.749096 -15.779513 4.184953 -43.655249 -77.136713 20.020575 64.295630 -65.832151 -39.524039 0.000000 0.000000 0.000000 -29.042317 25.301564 0.720936 13.117899 39.741901 3.843010 -35.687887 -4.878184 3.794124 0.000000 0.000000 0.000000 
-0.065573 0.946916 -0.073462 4.656011 8.292861 22.981365 5.888937 -2.012933 -27.343859 -2.966601 0.251110 -0.540664 -0.830193 6.921070 19.343128 0.000000 0.000000 0.000000 -13.022087 -0.388932 -28.221095 3.115591 -0.354644 2.491427 -16.298933 -28.914012 30.383454 0.000000 0.000000 0.000000 1.048264 -4.491897 45.660468 4.382597 -0.738996 -15.060942 10.727571 15.105983 29.574718 4.425483 1.847728 -25.202250 0.000000 0.000000 0.000000 -3.511901 -16.071375 4.414783 -34.711196 -81.438305 14.502557 61.899977 -59.826670 -33.264958 0.000000 0.000000 0.000000 -30.652249 25.223864 0.267807 12.283505 39.742100 3.761276 -32.859141 -6.279715 3.801719 0.000000 0.000000 0.000000 
-0.066678 0.946545 -0.075751 4.862294 8.933707 23.318939 5.695570 -2.147158 -28.043780 -2.955085 0.247431 -0.687541 -0.791425 7.349575 20.151327 0.000000 0.000000 0.000000 -13.132899 -0.495017 -28.492716 3.061117 -0.352271 2.452635 -16.743040 -29.305847 30.705951 0.000000 0.000000 0.000000 1.039693 -4.804768 46.846700 4.453832 -0.753934 -14.970620 10.534654 15.223226 29.046954 4.830233 1.500763 -23.942983 0.000000 0.000000 0.000000 -2.863703 -16.584917 4.663766 -14.803141 -84.109010 -2.089955 60.737278 -54.804108 -29.001066 0.000000 0.000000 0.000000 -31.352695 25.180156 0.125860 11.339960 40.050410 3.620288 -30.317058 -7.474663 3.723948 0.000000 0.000000 0.000000 
-0.068122 0.945599 -0.077548 4.844356 9.430688 23.863309 5.966631 -2.193217 -28.638518 -3.076916 0.255902 -1.019194 -0.940006 7.225571 20.188715 0.000000 0.000000 0.000000 -13.307605 -0.601020 -28.872333 3.533864 -0.423828 2.086367 -17.149186 -29.706468 30.891507 0.000000 0.000000 0.000000 0.910230 -4.953178 47.473700 4.649001 -0.779496 -15.281602 10.643455 15.366598 29.117440 4.847265 1.445464 -23.287443 0.000000 0.000000 0.000000 -2.028991 -16.656868 4.752862 16.554428 -85.478274 -30.836452 59.998545 -50.604195 -25.723781 0.000000 0.000000 0.000000 -32.127691 25.371674 -0.047017 10.542595 40.046481 3.480128 -27.760143 -8.293777 3.525435 0.000000 0.000000 0.000000 
